<svg xmlns="http://www.w3.org/2000/svg" width="424" height="592" viewBox="0 0 424 592">
    <defs>
        <linearGradient id="a" x1="88.996%" x2="10.135%" y1="5.963%" y2="96.347%">
            <stop offset="0%" stop-color="#F9FFF9"/>
            <stop offset="100%" stop-color="#D6FFDE"/>
        </linearGradient>
    </defs>
    <path fill="url(#a)" fill-rule="evenodd" d="M561.05 63.074C475.416-20.083 337.86-21.163 251 60.717c-60.004 56.563-81.648 137.759-64.948 212.102 6.68 29.74-13.014 58.946-43.244 63.155-29.878 4.16-58.6 18.52-80.531 43.09-44.772 50.149-44.302 127.063 1.034 176.707 51.224 56.089 138.343 57.599 191.496 4.52 21.234-21.202 33.742-47.817 37.521-75.395 4.11-29.988 33.436-49.541 63.007-42.892 72.51 16.308 151.554-3.71 207.997-60.071 88.314-88.183 87.55-231.628-2.28-318.86" opacity=".75" transform="translate(-205)"/>
</svg>
