<svg xmlns="http://www.w3.org/2000/svg" width="300" height="327" viewBox="0 0 300 327">
    <defs>
        <linearGradient id="a" x1="6.286%" x2="88.678%" y1="89.533%" y2="6.803%">
            <stop offset="0%" stop-color="#F9FFF9"/>
            <stop offset="100%" stop-color="#D6FFDE"/>
        </linearGradient>
    </defs>
    <path fill="url(#a)" fill-rule="evenodd" d="M1750.735 1437.924c-23.375 21.208-34.375 50.563-33.004 79.44 2.16 45.575-16.045 89.77-48.314 122.033l-1.112 1.109c-38.087 38.084-92.431 54.228-145.472 44.846-47.054-8.32-97.28 5.687-133.633 42.021-58.319 58.283-59.024 153.621-1.539 212.72 59.034 60.694 156.109 61.204 215.785 1.535 36.636-36.627 50.588-87.348 41.856-134.71-9.786-53.076 8.178-107.505 46.345-145.67l.545-.548c32.47-32.461 77.105-48.92 122.997-47.503 26.795.826 53.863-8.985 74.32-29.438 40.439-40.433 39.29-106.7-3.447-145.667-38.084-34.722-97.162-34.8-135.327-.168" opacity=".75" transform="translate(-1345 -1659)"/>
</svg>
